#N canvas 1970 485 450 300 10;
#X obj 167 133 ctlin;
#X obj 167 183 pack f f f;
#X obj 296 163 ctlout;
#X floatatom 285 79 5 0 0 0 - - -;
#X obj 167 224 print ctl;
#X obj 72 184 pack f f f;
#X obj 72 225 print note;
#X obj 72 134 notein;
#X obj 359 167 noteout;
#X floatatom 363 89 5 0 0 0 - - -;
#X connect 0 0 1 0;
#X connect 0 1 1 1;
#X connect 0 2 1 2;
#X connect 1 0 4 0;
#X connect 3 0 2 0;
#X connect 5 0 6 0;
#X connect 7 0 5 0;
#X connect 7 1 5 1;
#X connect 7 2 5 2;
#X connect 9 0 8 0;
